<svg xmlns="http://www.w3.org/2000/svg" width="228.12" height="35" viewBox="0 0 228.12 35"><rect class="svg__rect" x="0" y="0" width="127.25" height="35" fill="#31C4F3"/><rect class="svg__rect" x="125.25" y="0" width="102.87" height="35" fill="#389AD5"/><path class="svg__text" d="M15.70 22L14.22 22L14.22 13.47L17.48 13.47Q18.91 13.47 19.75 14.21Q20.59 14.96 20.59 16.18L20.59 16.18Q20.59 17.44 19.77 18.13Q18.95 18.83 17.46 18.83L17.46 18.83L15.70 18.83L15.70 22ZM15.70 14.66L15.70 17.64L17.48 17.64Q18.27 17.64 18.69 17.27Q19.10 16.90 19.10 16.19L19.10 16.19Q19.10 15.50 18.68 15.09Q18.26 14.68 17.52 14.66L17.52 14.66L15.70 14.66ZM24.61 18.00L24.61 18.00L24.61 17.52Q24.61 16.28 25.05 15.32Q25.49 14.37 26.30 13.86Q27.10 13.35 28.14 13.35Q29.19 13.35 29.99 13.85Q30.80 14.35 31.24 15.29Q31.68 16.23 31.68 17.48L31.68 17.48L31.68 17.96Q31.68 19.21 31.25 20.16Q30.82 21.10 30.01 21.61Q29.21 22.12 28.16 22.12L28.16 22.12Q27.12 22.12 26.31 21.61Q25.50 21.10 25.05 20.17Q24.61 19.23 24.61 18.00ZM26.09 17.46L26.09 17.96Q26.09 19.36 26.64 20.13Q27.18 20.90 28.16 20.90L28.16 20.90Q29.14 20.90 29.67 20.15Q30.20 19.40 30.20 17.96L30.20 17.96L30.20 17.51Q30.20 16.09 29.67 15.34Q29.13 14.58 28.14 14.58L28.14 14.58Q27.18 14.58 26.64 15.33Q26.10 16.09 26.09 17.46L26.09 17.46ZM37.53 22L35.56 13.47L37.03 13.47L38.36 19.88L39.99 13.47L41.23 13.47L42.84 19.89L44.15 13.47L45.62 13.47L43.65 22L42.24 22L40.61 15.77L38.96 22L37.53 22ZM55.27 22L49.70 22L49.70 13.47L55.23 13.47L55.23 14.66L51.18 14.66L51.18 17.02L54.68 17.02L54.68 18.19L51.18 18.19L51.18 20.82L55.27 20.82L55.27 22ZM60.95 22L59.47 22L59.47 13.47L62.47 13.47Q63.95 13.47 64.75 14.13Q65.55 14.79 65.55 16.05L65.55 16.05Q65.55 16.90 65.14 17.48Q64.72 18.06 63.99 18.37L63.99 18.37L65.90 21.92L65.90 22L64.31 22L62.60 18.71L60.95 18.71L60.95 22ZM60.95 14.66L60.95 17.52L62.48 17.52Q63.23 17.52 63.65 17.15Q64.07 16.77 64.07 16.11L64.07 16.11Q64.07 15.43 63.68 15.05Q63.29 14.68 62.52 14.66L62.52 14.66L60.95 14.66ZM75.52 22L69.95 22L69.95 13.47L75.48 13.47L75.48 14.66L71.43 14.66L71.43 17.02L74.93 17.02L74.93 18.19L71.43 18.19L71.43 20.82L75.52 20.82L75.52 22ZM82.17 22L79.72 22L79.72 13.47L82.24 13.47Q83.37 13.47 84.25 13.97Q85.12 14.48 85.60 15.40Q86.08 16.33 86.08 17.52L86.08 17.52L86.08 17.95Q86.08 19.16 85.60 20.08Q85.12 21.00 84.22 21.50Q83.33 22 82.17 22L82.17 22ZM81.20 14.66L81.20 20.82L82.17 20.82Q83.33 20.82 83.96 20.09Q84.58 19.36 84.59 17.99L84.59 17.99L84.59 17.52Q84.59 16.13 83.99 15.40Q83.39 14.66 82.24 14.66L82.24 14.66L81.20 14.66ZM99.64 22L96.52 22L96.52 13.47L99.45 13.47Q100.89 13.47 101.65 14.05Q102.41 14.63 102.41 15.78L102.41 15.78Q102.41 16.36 102.09 16.83Q101.77 17.30 101.16 17.56L101.16 17.56Q101.86 17.75 102.23 18.26Q102.61 18.78 102.61 19.51L102.61 19.51Q102.61 20.71 101.84 21.36Q101.07 22 99.64 22L99.64 22ZM98.01 18.15L98.01 20.82L99.65 20.82Q100.35 20.82 100.74 20.47Q101.14 20.13 101.14 19.51L101.14 19.51Q101.14 18.18 99.78 18.15L99.78 18.15L98.01 18.15ZM98.01 14.66L98.01 17.06L99.46 17.06Q100.15 17.06 100.54 16.75Q100.93 16.43 100.93 15.86L100.93 15.86Q100.93 15.23 100.57 14.95Q100.21 14.66 99.45 14.66L99.45 14.66L98.01 14.66ZM109.12 18.86L106.26 13.47L107.90 13.47L109.87 17.51L111.83 13.47L113.47 13.47L110.61 18.86L110.61 22L109.12 22L109.12 18.86Z" fill="#FFFFFF"/><path class="svg__text" d="M143.41 22L139.44 22L139.44 13.60L143.41 13.60Q144.79 13.60 145.86 14.12Q146.93 14.63 147.52 15.58Q148.10 16.53 148.10 17.80L148.10 17.80Q148.10 19.07 147.52 20.02Q146.93 20.97 145.86 21.48Q144.79 22 143.41 22L143.41 22ZM141.82 15.50L141.82 20.10L143.32 20.10Q144.39 20.10 145.05 19.49Q145.70 18.88 145.70 17.80L145.70 17.80Q145.70 16.72 145.05 16.11Q144.39 15.50 143.32 15.50L143.32 15.50L141.82 15.50ZM159.58 22L152.83 22L152.83 13.60L159.42 13.60L159.42 15.44L155.19 15.44L155.19 16.85L158.92 16.85L158.92 18.63L155.19 18.63L155.19 20.17L159.58 20.17L159.58 22ZM170.77 22L164.38 22L164.38 13.60L166.76 13.60L166.76 20.11L170.77 20.11L170.77 22ZM177.77 22L174.18 13.60L176.75 13.60L179.03 19.07L181.36 13.60L183.71 13.60L180.11 22L177.77 22ZM189.28 22L186.85 22L190.56 13.60L192.90 13.60L196.62 22L194.15 22L193.49 20.37L189.94 20.37L189.28 22ZM191.72 15.93L190.63 18.61L192.79 18.61L191.72 15.93ZM203.11 22L200.77 22L200.77 13.60L202.73 13.60L206.44 18.07L206.44 13.60L208.77 13.60L208.77 22L206.81 22L203.11 17.52L203.11 22ZM216.31 22L213.93 22L213.93 13.60L216.31 13.60L216.31 22Z" fill="#FFFFFF" x="138.25"/></svg>